    <svg xmlns="http://www.w3.org/2000/svg" class="my-svg logo-svg" preserveAspectRatio="xMinYMin meet" viewBox="135.2 390 322 59.4" role="img" aria-labelledby="logoTitle">

        <title id="logoTitle">Brand Logo Image</title>
        <path fill="#949CA1" d="M298.8,404.4l2.3,4.9c2.8-1.8,9.5-5.7,14.7-5.7c4.3,0,8.5,3.3,8.5,3.3l-3.4,6.5c0,0-2.4-1.2-7.1-1.2
	c-3.2,0-8.2,2.8-11.3,4.7v32.3h-8.5v-44.9L298.8,404.4L298.8,404.4z" ></path>
        <path fill="#949CA1" d="M361.8,448.5l-2.9-3.5c-1.5,1.1-3.4,2.3-5.4,2.8c-3,0.9-7.4,1.4-10.6,1.4c-8.3,0-12-4.2-12-15.5
	c0-7,3.5-11,10.4-11l16.5,0.1V421c0-8.4-2.5-10.8-8.9-10.8c-5.8,0-16,2.2-16,2.2l-1.3-5.8c0,0,9.9-3.7,18.9-3.7
	c11.8,0,16.2,6.3,16.2,15.6v30H361.8z M346.8,442.4l11-1.3v-11.3h-15.3c-2.5,0-4.2,1.1-4.2,4.3C338.3,439.9,339.3,443.2,346.8,442.4
	z" ></path>
        <path fill="#949CA1" d="M394.5,402.9c10.2,0,16.7,2.6,16.7,2.6l-1.4,6.2c-22.6-3.8-25.2-0.5-25.2,14.6c0,14.7,3.7,19.4,26.3,14.1
	l1,5.9c0,0-4.9,3-17.4,3c-13.6,0-18.5-5.5-18.5-23C376,407.6,380.7,402.9,394.5,402.9z" ></path>
        <path fill="#949CA1" d="M433.9,410.5v23c0,9.4,1.2,8.6,12.8,8.6l-0.6,6.2c-17.7,2.9-20.5-1.5-20.5-8.8v-29.1h-7.1v-6.9h7.1V391h8.3
	v12.6h14.7l-0.6,6.9L433.9,410.5L433.9,410.5z" ></path>
        <path fill="#949CA1" d="M144.2,390v8.1h-9V390H144.2z M144,404.3v45h-8.5v-45H144z" ></path>
        <path fill="#949CA1" d="M159.6,404.4l3,4.3c2.7-2,7.8-5,14.8-5c9.9,0,15.9,5.4,15.9,15.3v30.3h-8.6v-27.8c0-7.1-2.9-9.5-8.7-9.5
	c-3.4,0-8.4,0.9-12.6,3.6v33.7h-8.5v-44.9L159.6,404.4L159.6,404.4z" ></path>
        <path fill="#949CA1" d="M214.7,410.5v23c0,9.4,1.2,8.6,12.8,8.6l-0.6,6.2c-17.7,2.9-20.5-1.5-20.5-8.8v-29.1h-7.1v-6.9h7.1V391h8.3
	v12.6h14.7l-0.6,6.9L214.7,410.5L214.7,410.5z" ></path>
        <g>
            <g>
                <path fill="#337ab7" d="M279.8,409.3l-4.8-4.8l4.8-4.8l4.8,4.8L279.8,409.3z" ></path>
            </g>
            <g>
                <path fill="#337ab7" d="M257.9,449.4c-6.1,0-11.9-2.4-16.2-6.7c-4.3-4.3-6.7-10.1-6.7-16.2c0-6.1,2.4-11.9,6.7-16.2
			c4.3-4.3,10.1-6.7,16.2-6.7s11.9,2.4,16.2,6.7c0.7,0.7,1.3,1.4,1.9,2.2l0.3,0.3l-4.7,4.7l0,0l-19.3,19.3l-4.8-4.8l19.2-19.2
			c-2.6-1.7-5.7-2.6-8.9-2.6c-4.3,0-8.4,1.7-11.5,4.8c-6.3,6.3-6.3,16.7,0,23c3.1,3.1,7.2,4.8,11.5,4.8c4.3,0,8.4-1.7,11.5-4.8
			c3.5-3.5,5.2-8.2,4.7-13.1l0-0.5l6.7-0.6l0,0.5c0.7,6.8-1.8,13.6-6.6,18.4C269.7,447,264,449.4,257.9,449.4z" ></path>
            </g>
        </g>
        <path display="none" fill="#949CA1" d="M452.1,397.4H451V392h-1.7v-1h4.7v1h-1.8L452.1,397.4L452.1,397.4z M457.3,397.4l-1.7-4.9
	h-0.1c0,0.1,0,0.2,0,0.3c0,0.1,0,0.2,0,0.3c0,0.1,0,0.2,0,0.2c0,0.1,0,0.1,0,0.2v3.9h-1.1V391h1.7l1.6,4.9l1.7-4.9h1.6v6.4h-1.1
	v-3.8c0-0.1,0-0.1,0-0.2c0-0.1,0-0.2,0-0.3s0-0.2,0-0.3c0-0.1,0-0.2,0-0.3h-0.1l-1.7,4.9L457.3,397.4L457.3,397.4z" ></path>
        <g>
            <path fill="#949CA1" d="M457.2,394.9c0,2.2-1.7,3.9-4,3.9c-2.2,0-4-1.7-4-3.9c0-2.2,1.8-3.9,4-3.9
		C455.4,391.1,457.2,392.8,457.2,394.9z M450.2,394.9c0,1.7,1.3,3.1,3,3.1c1.7,0,2.9-1.4,2.9-3.1c0-1.7-1.3-3.1-3-3.1
		C451.5,391.9,450.2,393.2,450.2,394.9z M452.6,396.9h-0.9v-3.9c0.4,0,0.8-0.1,1.5-0.1c0.7,0,1.1,0.1,1.3,0.3
		c0.2,0.2,0.4,0.4,0.4,0.8c0,0.5-0.4,0.8-0.8,0.9v0c0.4,0.1,0.6,0.4,0.7,0.9c0.1,0.6,0.2,0.8,0.3,0.9h-0.9c-0.1-0.1-0.2-0.5-0.3-0.9
		c-0.1-0.4-0.3-0.6-0.8-0.6h-0.4L452.6,396.9L452.6,396.9z M452.6,394.8h0.4c0.5,0,0.9-0.2,0.9-0.6c0-0.4-0.3-0.6-0.8-0.6
		c-0.2,0-0.4,0-0.5,0L452.6,394.8L452.6,394.8z" ></path>
        </g>
    </svg>
